<?xml version="1.0" standalone="no"?>
<!DOCTYPE svg PUBLIC "-//W3C//DTD SVG 20010904//EN"
 "http://www.w3.org/TR/2001/REC-SVG-20010904/DTD/svg10.dtd">
<svg version="1.0" xmlns="http://www.w3.org/2000/svg"
 width="1101.000000pt" height="1078.000000pt" viewBox="0 0 1101.000000 1078.000000"
 preserveAspectRatio="xMidYMid meet">

<g transform="translate(0.000000,1078.000000) scale(0.100000,-0.100000)"
fill="#000000" stroke="none">
<path d="M5983 4990 c-223 -113 -358 -500 -292 -838 6 -30 9 -56 6 -58 -2 -2
-14 24 -27 58 -57 158 -127 261 -204 300 -76 39 -184 19 -243 -44 -32 -34 -64
-112 -70 -172 -11 -108 44 -256 119 -320 68 -59 178 -82 265 -57 20 6 35 6 38
0 9 -13 42 -193 65 -347 12 -75 23 -147 26 -159 4 -22 9 -23 89 -23 l85 0 -5
28 c-3 15 -17 104 -31 197 -14 94 -34 210 -45 260 -23 107 -23 101 -3 109 11
4 34 -13 73 -53 33 -32 83 -70 115 -86 52 -25 57 -31 53 -54 -34 -184 -57
-330 -57 -362 l0 -39 85 0 85 0 0 34 c0 39 44 303 60 357 9 30 17 38 53 49
179 53 428 291 528 505 56 120 51 258 -13 331 -43 49 -83 67 -148 67 -75 0
-137 -29 -211 -100 -112 -106 -195 -256 -284 -515 l-48 -138 -38 22 c-22 12
-48 32 -60 44 l-20 21 50 52 c36 37 68 88 115 183 104 211 157 392 159 548 2
73 -2 92 -23 134 -32 65 -66 88 -132 93 -44 4 -63 -1 -115 -27z m103 -224
c-12 -143 -90 -368 -180 -518 -28 -48 -43 -65 -51 -57 -6 6 -10 62 -9 142 1
112 5 145 28 222 30 98 62 163 109 220 34 42 86 77 100 68 6 -3 7 -35 3 -77z
m522 -268 c16 -16 15 -87 -2 -137 -21 -58 -87 -152 -170 -239 -67 -71 -184
-167 -193 -158 -2 2 14 50 35 107 79 209 168 354 251 409 49 33 61 36 79 18z
m-1187 -225 c32 -37 75 -121 99 -197 15 -47 6 -56 -61 -56 -59 0 -89 23 -119
92 -29 68 -25 152 10 180 30 24 33 24 71 -19z"/>
</g>
</svg>
